<?xml version="1.0" encoding="utf-8"?><svg fill="none" viewBox="0 0 2513 2000" xmlns="http://www.w3.org/2000/svg"><defs /><g transform="matrix(1,0,0,1,1256.5,1000)" id="Shape Layer 1"><g id="Rectangle 1" transform="matrix(1,0,0,1,3.453,20.203)"><rect height="2120.406" width="2615.906" y="0" x="0" fill="#f4faff" fill-opacity="1" /></g></g><g transform="matrix(1,0,0,1,200.914,173.77)" id="Layer 1 Outlines"><g id="Group 4" transform="matrix(1,0,0,1,1045.863,861.677)"><path fill="#fecc86" fill-opacity="1" d="M992.068,457.456C951.854,548.356,896.091,620.388,829.402,676.891C752.392,742.153,660.806,786.702,561.762,815.675C239.519,909.965,-161.599,839.386,-396.163,780.832C-443.729,768.955,-484.445,757.573,-516.265,748.16C-569.973,732.273,-620.878,708.012,-666.752,675.878C-666.991,675.71,-667.231,675.542,-667.47,675.374C-981.819,454.878,-1115.331,139.735,-1010.81,-158.752C-1009.187,-163.409,-701.012,-1111.343,29.735,-798.279C350.533,-660.841,232.533,-544.054,588.121,-397.982C754.363,-329.687,974.351,-207.869,1034.698,79.487C1056.232,182.036,1048.981,328.796,992.068,457.456Z" /></g></g><g opacity="0" id="Paper Plane Outlines"><animate repeatCount="indefinite" attributeName="opacity" dur="1.5015015259644657s" begin="0.6006005761376382s" calcMode="spline" values="0; 1; 1; 0" keyTimes="0; 0.111; 0.933; 1" keySplines="0.167 0.167 0.833 0.98; 0.167 14.683 0.833 16.417; 0.167 0.013 0.833 0.833" fill="freeze" /><g transform="translate(802.449,836.594)"><animateTransform repeatCount="indefinite" type="translate" attributeName="transform" dur="1.301s" begin="0.801s" calcMode="spline" values="802.449 836.594; 1166.449 204.594; 1574.449 440.594; 1098.449 424.594; 1510.449 120.594; 1725.539 724.793; 1694.449 496.594" keyTimes="0; 0.205; 0.41; 0.615; 0.795; 0.974; 1" keySplines="0.333 0 0.667 1; 0.333 0.024 0.667 1; 0.333 0.017 0.667 0.835; 0.333 0.136 0.667 1; 0.333 0 0.667 0.872; 0.333 0.055 0.667 1" fill="freeze" /><g transform="rotate(-154)"><animateTransform repeatCount="indefinite" type="rotate" attributeName="transform" dur="1.301s" begin="0.801s" calcMode="spline" values="-154; -125; -73.5; -58; -38; 62; 92.158; 122.262; 143.691; 187; 233.719; 326; 364.82; 376" keyTimes="0; 0.103; 0.154; 0.205; 0.308; 0.41; 0.487; 0.538; 0.564; 0.59; 0.641; 0.795; 0.872; 1" keySplines="0.333 0 0.667 0.172; 0.333 0.233 0.667 0.733; 0.333 0.887 0.667 1; 0.333 0 0.667 0; 0.333 0.3 0.667 1; 0.333 0 0.667 0.529; 0.333 0.315 0.667 0.419; 0.333 0.408 0.667 0.055; 0.333 0.468 0.667 1; 0.333 0 0.667 0.721; 0.333 0.424 0.667 1; 0.333 0 0.667 0.774; 0.333 1 0.667 1" fill="freeze" /><g transform="scale(1,1) translate(-39.938,-16.852)"><g id="Group 3" transform="matrix(1,0,0,1,62.172,79.424)"><path fill="#cc154a" fill-opacity="1" d="M-2.914,9.297L33.455,66.031C33.455,66.031,20.988,4.581,20.69,3.104C20.395,1.636,-16.013,-66.031,-16.013,-66.031L-14.749,-65.861L-33.455,-62.22L-2.914,9.297Z" /></g><g id="Group 2" transform="matrix(1,0,0,1,47.938,81.329)"><path fill="#f7597f" fill-opacity="1" d="M-19.22,-64.125L-47.688,-54.23L47.688,64.125L-19.22,-64.125Z" /></g><g id="Group 1" transform="matrix(1,0,0,1,70.893,72.852)"><path fill="#f7597f" fill-opacity="1" d="M12.871,-72.602L-24.733,-59.458L24.733,72.602L12.871,-72.602Z" /></g><g opacity="0.5"><animate repeatCount="indefinite" attributeName="opacity" dur="1.267934635244273s" begin="0.8341674668578307s" calcMode="spline" values="0.5; 0; 0.5; 0; 0.5; 0; 0.5; 0; 0.5; 0; 0.5; 0; 0.5; 0; 0.5; 0; 0.5; 0; 0.5; 0; 0.5; 0; 0.5; 0; 0.5; 0; 0.5; 0; 0.5; 0; 0.5; 0; 0.5; 0; 0.5; 0; 0.5; 0; 0.5" keyTimes="0; 0.026; 0.053; 0.079; 0.105; 0.132; 0.158; 0.184; 0.211; 0.237; 0.263; 0.289; 0.316; 0.342; 0.368; 0.395; 0.421; 0.447; 0.474; 0.5; 0.526; 0.553; 0.579; 0.605; 0.632; 0.658; 0.684; 0.711; 0.737; 0.763; 0.789; 0.816; 0.842; 0.868; 0.895; 0.921; 0.947; 0.974; 1" keySplines="0.167 0.167 0.833 1; 0.167 0 0.833 1; 0.167 0 0.833 1; 0.167 0 0.833 1; 0.167 0 0.833 1; 0.167 0 0.833 1; 0.167 0 0.833 1; 0.167 0 0.833 1; 0.167 0 0.833 1; 0.167 0 0.833 1; 0.167 0 0.833 1; 0.167 0 0.833 1; 0.167 0 0.833 1; 0.167 0 0.833 1; 0.167 0 0.833 1; 0.167 0 0.833 1; 0.167 0 0.833 1; 0.167 0 0.833 1; 0.167 0 0.833 1; 0.167 0 0.833 1; 0.167 0 0.833 1; 0.167 0 0.833 1; 0.167 0 0.833 1; 0.167 0 0.833 1; 0.167 0 0.833 1; 0.167 0 0.833 1; 0.167 0 0.833 1; 0.167 0 0.833 1; 0.167 0 0.833 1; 0.167 0 0.833 1; 0.167 0 0.833 1; 0.167 0 0.833 1; 0.167 0 0.833 1; 0.167 0 0.833 1; 0.167 0 0.833 1; 0.167 0 0.833 1; 0.167 0 0.833 1; 0.167 0 0.833 0.833" fill="freeze" /><g id="Ellipse 1" transform="translate(35.259,-11.431) rotate(-20)"><ellipse ry="35.723" rx="10.39" cy="0" cx="0" fill="#f4faff" fill-opacity="1" /></g></g></g></g></g></g><g id="Hand Left Outlines"><g transform="translate(740.957,1578.268)"><animateTransform repeatCount="indefinite" type="translate" attributeName="transform" dur="0.534s" begin="0s" calcMode="spline" values="740.957 1578.853; 740.957 1526.853" keyTimes="0; 1" keySplines="0.333 0 0.667 1" fill="freeze" /><g transform="scale(0.802,0.802)"><animateTransform repeatCount="indefinite" type="scale" attributeName="transform" dur="0.534s" begin="0s" calcMode="spline" values="0.8 0.8; 1 1" keyTimes="0; 1" keySplines="0.333 0 0.667 1" fill="freeze" /><g transform="translate(-195.877,-893.676)"><g id="Group 27" transform="matrix(1,0,0,1,483.875,181.024)"><path fill="#fe9f73" fill-opacity="1" d="M-40.408,-43.322C-40.408,-43.322,18.917,-57.837,36.088,-35.531C53.258,-13.226,10.98,48.283,-21.139,53.06C-53.258,57.837,-40.408,-43.322,-40.408,-43.322Z" /></g><g id="Group 26" transform="matrix(1,0,0,1,264.298,812.797)"><path fill="#ed7163" fill-opacity="1" d="M11.485,146.825C11.485,146.825,162.452,73.515,190.128,-30.038C217.804,-133.592,40.112,-146.825,42.581,-146.813C45.05,-146.801,-137.888,-98.339,-150.38,-68.775C-162.872,-39.212,-217.804,83.956,-195.585,84.067C-173.365,84.178,11.485,146.825,11.485,146.825Z" /></g><g id="Group 25" transform="matrix(1,0,0,1,286.135,404.842)"><path fill="#d0f6fc" fill-opacity="1" d="M123.208,-375.134C123.164,-375.357,123.116,-375.579,123.062,-375.798C121.362,-383.244,114.348,-388.247,106.753,-387.438C106.528,-387.417,106.303,-387.391,106.077,-387.36C106.002,-387.349,105.928,-387.347,105.854,-387.334L-226.35,-331.913C-226.425,-331.9,-226.495,-331.878,-226.569,-331.865C-226.793,-331.821,-227.014,-331.772,-227.234,-331.719C-234.68,-330.019,-239.69,-323.009,-238.882,-315.414C-238.861,-315.19,-238.835,-314.965,-238.804,-314.74C-238.792,-314.665,-238.791,-314.591,-238.778,-314.516L-123.543,376.215C-122.345,383.4,-115.549,388.247,-108.37,387.049L227.657,330.99C234.835,329.792,239.69,323.002,238.491,315.817L123.256,-374.914C123.244,-374.989,123.222,-375.06,123.208,-375.134Z" /></g><g id="Group 24" transform="matrix(1,0,0,1,232.176,69.76)"><path fill="#0d93b2" fill-opacity="1" d="M-191.264,17.248L-167.198,-5.888L156.628,-59.055L189.186,-38.82C189.186,-38.82,191.264,-9.468,189.558,-8.732C187.852,-7.995,-187.141,59.055,-188.09,53.273C-189.04,47.49,-191.264,17.248,-191.264,17.248Z" /></g><g id="Group 23" transform="matrix(1,0,0,1,73.324,97.2)"><path fill="#ffffff" fill-opacity="1" d="M4.862,-0.639C5.201,1.39,4.284,3.338,2.675,4.408C2.101,4.795,1.43,5.07,0.698,5.192C-0.026,5.313,-0.743,5.269,-1.418,5.091C-3.286,4.608,-4.794,3.058,-5.132,1.028C-5.593,-1.733,-3.723,-4.343,-0.969,-4.802C1.792,-5.263,4.401,-3.4,4.862,-0.639Z" /></g><g id="Group 22" transform="matrix(1,0,0,1,88.589,94.647)"><path fill="#ffffff" fill-opacity="1" d="M5.058,-0.664C5.397,1.365,4.48,3.313,2.871,4.383C2.297,4.77,1.626,5.045,0.895,5.167C0.163,5.289,-0.561,5.245,-1.229,5.066C-3.098,4.576,-4.598,3.033,-4.936,1.003C-5.397,-1.758,-3.534,-4.367,-0.773,-4.827C1.988,-5.288,4.597,-3.425,5.058,-0.664Z" /></g><g id="Group 21" transform="matrix(1,0,0,1,103.915,92.264)"><path fill="#ffffff" fill-opacity="1" d="M5.193,-0.861C5.532,1.168,4.615,3.116,3.006,4.186C2.432,4.573,1.761,4.848,1.03,4.97C0.298,5.092,-0.426,5.049,-1.094,4.87C-2.964,4.38,-4.463,2.836,-4.801,0.806C-5.262,-1.955,-3.399,-4.564,-0.638,-5.024C2.123,-5.485,4.732,-3.622,5.193,-0.861Z" /></g><g id="Group 20" transform="matrix(1,0,0,1,286.544,408.805)"><path fill="#20111d" fill-opacity="1" d="M96.035,-405.136L-222.351,-352.02C-242.836,-348.602,-256.679,-329.224,-253.26,-308.732L-139.322,374.228C-135.903,394.72,-116.52,408.555,-96.035,405.137L222.35,352.021C242.843,348.602,256.68,329.226,253.261,308.733L139.323,-374.227C135.904,-394.719,116.527,-408.555,96.035,-405.136ZM236.888,304.704C238.746,315.837,231.224,326.364,220.098,328.22L-101.622,381.892C-112.755,383.75,-123.288,376.235,-125.145,365.102L-237.922,-310.901C-239.995,-323.324,-231.604,-335.068,-219.187,-337.139L97.873,-390.034C110.29,-392.106,122.039,-383.723,124.112,-371.299L236.888,304.704Z" /></g><g id="Group 19" transform="matrix(1,0,0,1,154.242,763.747)"><path fill="#fe9f73" fill-opacity="1" d="M152.486,177.517L152.478,178.427L152.478,178.712L152.041,266.392L151.291,415.355C103.725,403.477,63.009,392.095,31.189,382.683C-22.52,366.796,-73.424,342.535,-119.298,310.401C-119.538,310.233,-119.776,310.065,-120.016,309.897L-113.87,121.871C-113.87,121.871,-152.487,-53.621,-149.811,-95.574C-147.126,-137.536,-119.489,-233.672,-106.965,-270.648C-103.281,-281.513,-101.078,-295.598,-99.803,-310.058C-99.705,-311.138,-99.616,-312.217,-99.535,-313.305C-99.535,-313.332,-99.526,-313.35,-99.526,-313.35C-98.429,-327.23,-98.151,-341.262,-98.196,-352.975C-98.196,-353.34,-98.197,-353.706,-98.206,-354.081C-98.206,-355.107,-98.215,-356.106,-98.224,-357.087C-98.224,-357.346,-98.232,-357.604,-98.232,-357.863C-98.401,-372.002,-99,-381.707,-99,-381.707C-98.759,-384.107,-98.42,-386.355,-98.01,-388.469C-97.591,-390.681,-97.073,-392.733,-96.484,-394.642C-96.038,-396.096,-95.538,-397.461,-95.003,-398.737C-91.39,-407.372,-85.851,-412.216,-79.313,-414.017C-74.469,-415.355,-69.072,-415.025,-63.496,-413.339C-43.756,-407.363,-21.749,-384.33,-13.943,-357.827C0.624,-308.372,-12.436,-165.252,-12.436,-165.252C-12.436,-165.252,21.328,-131.149,42.523,-63.166C48.143,-45.147,52.881,-24.746,55.869,-1.963C57.002,6.699,57.573,14.826,57.627,22.452C57.716,31.266,57.126,39.401,56.02,46.904C54.45,57.572,51.81,66.966,48.483,75.217C30.758,119.231,-6.512,131.05,-6.512,131.05L-4.05,131.773L56.726,149.533L149.293,176.58L152.468,177.508L152.486,177.517Z" /></g><g id="Group 18" transform="matrix(1,0,0,1,519.503,550.366)"><path fill="#fe9f73" fill-opacity="1" d="M-19.485,-79.1L-15.346,-53.814C-15.346,-53.814,-51.016,-17.825,-39.378,27.883C-27.741,73.592,2.998,79.101,2.998,79.101C2.998,79.101,51.016,14.736,50.261,-7.607C49.506,-29.95,49.322,-69.149,-19.485,-79.1Z" /></g><g id="Group 17" transform="matrix(1,0,0,1,534.747,586.078)"><path fill="#f78a5e" fill-opacity="1" d="M-6.123,34.919C-6.123,34.919,13.131,15.397,31.013,-27.21C28.04,-29.053,22.516,-30.645,18.979,-31.695C8.12,-34.919,1.212,-32.687,-4.664,-25.066L-26.764,7.283C-26.764,7.283,-31.012,15.541,-21.681,25.088C-18.094,28.757,-6.123,34.919,-6.123,34.919Z" /></g><g id="Group 16" transform="matrix(1,0,0,1,524.678,559.861)"><path fill="#000000" fill-opacity="1" d="M-1.536,71.331L-2.543,71.082C-17.964,67.261,-27.516,55.372,-27.915,54.868C-28.919,53.69,-53.26,24.649,-48.401,-9.148C-43.566,-42.786,-15.358,-70.181,-14.16,-71.331L-12.052,-69.137C-12.338,-68.862,-40.705,-41.299,-45.389,-8.716C-50.049,23.7,-25.808,52.649,-25.563,52.938C-25.44,53.09,-16.623,64.036,-2.811,67.867L24.589,29.195C53.26,-12.195,40.043,-44.588,39.905,-44.911L42.703,-46.106C42.852,-45.758,46.348,-37.422,46.172,-23.695C46.01,-11.109,42.565,8.587,27.08,30.943L-1.536,71.331Z" /></g><g id="Group 15" transform="matrix(1,0,0,1,543.098,705.335)"><path fill="#fe9f73" fill-opacity="1" d="M-15.226,-61.81L-11.992,-42.051C-11.992,-42.051,-39.865,-13.928,-30.771,21.789C-21.677,57.506,2.343,61.81,2.343,61.81C2.343,61.81,39.865,11.515,39.275,-5.944C38.685,-23.404,38.54,-54.034,-15.226,-61.81Z" /></g><g id="Group 14" transform="matrix(1,0,0,1,555.01,733.241)"><path fill="#f78a5e" fill-opacity="1" d="M-4.785,27.286C-4.785,27.286,10.26,12.031,24.234,-21.262C21.91,-22.702,17.594,-23.946,14.83,-24.767C6.344,-27.286,0.947,-25.542,-3.644,-19.587L-20.914,5.691C-20.914,5.691,-24.234,12.144,-16.942,19.604C-14.139,22.471,-4.785,27.286,-4.785,27.286Z" /></g><g id="Group 13" transform="matrix(1,0,0,1,548.515,712.755)"><path fill="#000000" fill-opacity="1" d="M-2.573,55.739L-3.36,55.544C-15.41,52.559,-22.873,43.267,-23.185,42.873C-23.97,41.953,-42.99,19.261,-39.193,-7.149C-35.415,-33.434,-13.373,-54.841,-12.437,-55.739L-10.791,-54.024C-11.014,-53.81,-33.18,-32.271,-36.84,-6.81C-40.481,18.519,-21.539,41.14,-21.348,41.365C-21.252,41.485,-14.361,50.039,-3.569,53.032L17.841,22.814C40.245,-9.529,29.917,-34.842,29.81,-35.094L31.996,-36.028C32.456,-34.953,42.99,-9.317,19.788,24.179L-2.573,55.739Z" /></g><g id="Group 12" transform="matrix(1,0,0,1,152.949,874.922)"><path fill="#fe9f73" fill-opacity="1" d="M51.22,-40.031C51.22,-40.031,27.158,22.191,57.97,38.336C88.781,54.481,-16.237,63.084,-16.221,60.042C-16.206,56.999,-88.781,-33.126,-70.502,-37.599C-52.223,-42.071,4.934,-63.084,17.796,-49.328C30.659,-35.571,51.22,-40.031,51.22,-40.031Z" /></g><g id="Group 11" transform="matrix(1,0,0,1,495.198,400.657)"><path fill="#fe9f73" fill-opacity="1" d="M-19.485,-79.1L-15.346,-53.814C-15.346,-53.814,-51.016,-17.824,-39.378,27.884C-27.741,73.593,2.998,79.1,2.998,79.1C2.998,79.1,51.016,14.736,50.261,-7.608C49.506,-29.951,49.322,-69.149,-19.485,-79.1Z" /></g><g id="Group 10" transform="matrix(1,0,0,1,510.442,436.368)"><path fill="#f78a5e" fill-opacity="1" d="M-6.123,34.919C-6.123,34.919,13.131,15.397,31.013,-27.21C28.04,-29.053,22.516,-30.645,18.979,-31.695C8.12,-34.919,1.212,-32.687,-4.664,-25.066L-26.764,7.283C-26.764,7.283,-31.012,15.542,-21.681,25.088C-18.094,28.757,-6.123,34.919,-6.123,34.919Z" /></g><g id="Group 9" transform="matrix(1,0,0,1,306.51,985.699)"><path fill="#000000" fill-opacity="1" d="M1.299,44.446L-1.744,44.431L-1.299,-44.446L1.744,-44.431L1.299,44.446Z" /></g><g id="Group 8" transform="matrix(1,0,0,1,374.578,871.558)"><path fill="#000000" fill-opacity="1" d="M-75.821,74.311L-77.049,71.527C-25.357,48.723,22.668,4.854,45.414,-26.257C65.531,-53.771,74.159,-74.11,74.244,-74.312L77.049,-73.135C76.963,-72.93,68.217,-52.29,47.871,-24.462C24.892,6.966,-23.617,51.281,-75.821,74.311Z" /></g><g id="Group 7" transform="matrix(1,0,0,1,73.029,408.117)"><path fill="#f78a5e" fill-opacity="1" d="M16.25,-34.349C13.22,-42.925,-8.687,-44.071,-15.125,-42.922C-19.28,-42.18,-14.932,38.595,-18.312,42.281C-18.312,42.281,-18.924,43.292,-8.292,43.662C3.425,44.071,11.563,39.13,11.563,39.13C11.563,39.13,19.28,-25.774,16.25,-34.349Z" /></g><g id="Group 6" transform="matrix(1,0,0,1,500.373,410.147)"><path fill="#000000" fill-opacity="1" d="M-1.53,71.327L-2.529,71.09C-16.395,67.806,-27.401,55.457,-27.863,54.933C-28.919,53.694,-53.259,24.654,-48.401,-9.143C-43.565,-42.781,-15.358,-70.177,-14.159,-71.327L-12.053,-69.131C-12.338,-68.857,-40.705,-41.294,-45.389,-8.71C-50.049,23.705,-25.808,52.653,-25.563,52.941C-25.476,53.04,-15.28,64.462,-2.815,67.877L24.588,29.2C53.259,-12.189,40.042,-44.585,39.905,-44.907L42.704,-46.102C42.852,-45.753,46.348,-37.418,46.171,-23.691C46.009,-11.105,42.566,8.591,27.08,30.947L-1.53,71.327Z" /></g><g id="Group 5" transform="matrix(1,0,0,1,455.81,208.355)"><path fill="#000000" fill-opacity="1" d="M22.539,138.734L-25.542,-138.243L-22.539,-138.734L25.542,138.242L22.539,138.734Z" /></g><g id="Group 4" transform="matrix(1,0,0,1,490.568,158.324)"><path fill="#000000" fill-opacity="1" d="M22.896,35.158L20.416,33.395C20.628,33.095,41.483,3.282,26.181,-14.141C10.667,-31.805,-44.138,-19.732,-44.69,-19.608L-45.357,-22.577C-43.033,-23.099,11.775,-35.158,28.468,-16.149C45.357,3.083,23.821,33.857,22.896,35.158Z" /></g><g id="Group 3" transform="matrix(1,0,0,1,82.905,842.933)"><path fill="#000100" fill-opacity="1" d="M18.451,18.88C18.005,19.199,17.408,19.283,16.87,19.046C-1.226,11.088,-18.155,-15.47,-18.867,-16.597C-19.34,-17.346,-19.113,-18.33,-18.367,-18.808C-17.619,-19.282,-16.628,-19.06,-16.154,-18.311C-15.985,-18.043,0.965,8.547,18.161,16.109C18.972,16.466,19.341,17.412,18.984,18.223C18.864,18.496,18.677,18.718,18.451,18.88Z" /></g><g id="Group 2" transform="matrix(1,0,0,1,101.436,843.781)"><path fill="#000100" fill-opacity="1" d="M21.822,14.68C21.473,14.93,21.027,15.04,20.574,14.95C1.186,11.083,-21.073,-11.198,-22.011,-12.143C-22.635,-12.773,-22.63,-13.788,-22.001,-14.411C-21.372,-15.039,-20.355,-15.031,-19.732,-14.403C-19.51,-14.178,2.779,8.128,21.202,11.802C22.071,11.976,22.634,12.821,22.46,13.69C22.378,14.106,22.141,14.451,21.822,14.68Z" /></g><g id="Group 1" transform="matrix(1,0,0,1,108.07,621.791)"><path fill="#000000" fill-opacity="1" d="M40.121,274.452L39.2,271.552C39.389,271.492,58.275,265.314,75.173,246.129C90.764,228.429,107.819,195.683,100.533,140.195C93.203,84.346,75.139,43.162,61.277,18.448C46.253,-8.335,32.788,-22.086,32.653,-22.221L32.156,-22.724L32.22,-23.43C32.35,-24.859,45.089,-166.832,30.767,-215.444C22.193,-244.562,-5.168,-271.216,-26.638,-271.366C-26.654,-271.366,-26.672,-271.366,-26.688,-271.366C-37.302,-271.419,-44.968,-264.806,-48.86,-252.236C-49.999,-248.552,-50.819,-244.341,-51.301,-239.718C-51.16,-237.297,-49.155,-201.393,-52.112,-167.966C-53.566,-151.469,-56.001,-138.091,-59.352,-128.205C-70.814,-94.362,-99.4,3.967,-102.118,46.481C-104.756,87.743,-66.594,261.744,-66.209,263.497L-69.18,264.15C-70.759,256.977,-107.82,87.975,-105.154,46.286C-102.418,3.487,-73.733,-95.227,-62.233,-129.181C-58.96,-138.838,-56.574,-151.977,-55.142,-168.233C-52.116,-202.441,-54.323,-239.291,-54.345,-239.66L-54.353,-239.783L-54.34,-239.907C-53.84,-244.777,-52.975,-249.226,-51.767,-253.135C-46.301,-270.784,-35.116,-274.451,-26.673,-274.408C-26.654,-274.408,-26.635,-274.408,-26.616,-274.408C-15.806,-274.332,-2.991,-267.975,8.544,-256.965C20.356,-245.692,29.285,-231.251,33.686,-216.304C47.808,-168.371,36.39,-35.9,35.312,-23.843C37.905,-21.08,50.278,-7.352,63.864,16.844C77.884,41.808,96.148,83.404,103.549,139.797C106.833,164.803,105.563,187.436,99.775,207.065C95.13,222.82,87.584,236.683,77.345,248.268C59.887,268.021,40.92,274.199,40.121,274.452Z" /></g></g></g></g></g><g id="Card Outlines"><g transform="translate(719.727,1080.265)"><g transform="scale(0,0)"><animateTransform repeatCount="indefinite" type="scale" attributeName="transform" dur="0.267s" begin="0.534s" calcMode="spline" values="0 0; 1 1" keyTimes="0; 1" keySplines="0.333 0 0.667 1" fill="freeze" /><g transform="translate(-35.893,-250.988)"><g id="Group 31" transform="matrix(1,0,0,1,263.892,194.987)"><path fill="#f7597f" fill-opacity="1" d="M248.703,101.985L-188.656,191.477C-196.765,193.136,-204.684,187.908,-206.343,179.799L-260.381,-84.298C-262.04,-92.407,-256.812,-100.326,-248.703,-101.985L188.656,-191.477C196.765,-193.137,204.684,-187.908,206.343,-179.799L260.381,84.298C262.04,92.407,256.812,100.326,248.703,101.985Z" /></g><g id="Group 29" transform="matrix(1,0,0,1,76.926,278.035)"><path fill="#ffffff" fill-opacity="1" d="M5.139,-3.618C4.825,-5.153,4.425,-6.433,3.936,-7.462C3.447,-8.491,2.889,-9.298,2.264,-9.881C1.639,-10.463,0.948,-10.842,0.192,-11.018C-0.565,-11.192,-1.367,-11.193,-2.217,-11.019C-3.067,-10.845,-3.806,-10.529,-4.433,-10.071C-5.06,-9.613,-5.547,-8.993,-5.892,-8.212C-6.239,-7.43,-6.434,-6.47,-6.48,-5.332C-6.525,-4.194,-6.39,-2.858,-6.076,-1.323L-5.066,3.608C-4.752,5.143,-4.352,6.425,-3.863,7.454C-3.374,8.483,-2.817,9.289,-2.191,9.871C-1.566,10.454,-0.875,10.833,-0.119,11.007C0.638,11.183,1.44,11.183,2.29,11.009C3.139,10.835,3.879,10.52,4.506,10.061C5.133,9.603,5.618,8.984,5.965,8.202C6.31,7.421,6.506,6.461,6.551,5.323C6.596,4.185,6.462,2.848,6.148,1.314L5.139,-3.618ZM9.913,5.948C9.793,7.47,9.437,8.767,8.845,9.84C8.252,10.912,7.451,11.774,6.442,12.424C5.434,13.074,4.236,13.543,2.848,13.827C1.46,14.111,0.168,14.152,-1.027,13.953C-2.223,13.754,-3.304,13.277,-4.27,12.523C-5.237,11.769,-6.074,10.717,-6.782,9.364C-7.49,8.012,-8.051,6.325,-8.464,4.304L-9.473,-0.628C-9.887,-2.649,-10.033,-4.42,-9.913,-5.943C-9.793,-7.464,-9.438,-8.762,-8.845,-9.834C-8.253,-10.907,-7.446,-11.77,-6.425,-12.423C-5.404,-13.075,-4.199,-13.544,-2.811,-13.828C-1.422,-14.112,-0.137,-14.153,1.046,-13.951C2.23,-13.749,3.304,-13.272,4.27,-12.518C5.236,-11.764,6.074,-10.711,6.782,-9.359C7.49,-8.006,8.05,-6.32,8.463,-4.298L9.473,0.633C9.887,2.655,10.033,4.427,9.913,5.948Z" /></g><g id="Group 28" transform="matrix(1,0,0,1,99.028,273.513)"><path fill="#ffffff" fill-opacity="1" d="M5.139,-3.618C4.825,-5.153,4.425,-6.433,3.936,-7.462C3.447,-8.491,2.889,-9.298,2.264,-9.881C1.639,-10.463,0.948,-10.842,0.192,-11.018C-0.565,-11.192,-1.367,-11.193,-2.217,-11.019C-3.067,-10.845,-3.806,-10.529,-4.433,-10.071C-5.06,-9.613,-5.547,-8.993,-5.892,-8.212C-6.239,-7.43,-6.434,-6.47,-6.48,-5.332C-6.525,-4.194,-6.39,-2.858,-6.076,-1.323L-5.066,3.608C-4.752,5.143,-4.352,6.425,-3.863,7.454C-3.374,8.483,-2.817,9.289,-2.191,9.871C-1.566,10.454,-0.876,10.833,-0.119,11.008C0.638,11.183,1.44,11.183,2.29,11.009C3.139,10.835,3.879,10.52,4.506,10.061C5.133,9.603,5.618,8.984,5.965,8.202C6.31,7.421,6.506,6.461,6.551,5.323C6.596,4.185,6.462,2.848,6.148,1.314L5.139,-3.618ZM9.913,5.948C9.793,7.47,9.437,8.767,8.845,9.84C8.252,10.912,7.451,11.774,6.442,12.424C5.433,13.074,4.236,13.542,2.848,13.826C1.46,14.11,0.168,14.152,-1.027,13.953C-2.223,13.754,-3.304,13.277,-4.27,12.523C-5.237,11.769,-6.074,10.717,-6.782,9.364C-7.49,8.012,-8.051,6.325,-8.464,4.304L-9.473,-0.628C-9.887,-2.649,-10.033,-4.42,-9.913,-5.943C-9.793,-7.464,-9.438,-8.762,-8.845,-9.834C-8.253,-10.907,-7.446,-11.77,-6.425,-12.423C-5.404,-13.075,-4.199,-13.544,-2.811,-13.828C-1.422,-14.112,-0.137,-14.153,1.046,-13.951C2.23,-13.749,3.304,-13.272,4.27,-12.518C5.236,-11.764,6.074,-10.711,6.782,-9.359C7.49,-8.006,8.05,-6.32,8.463,-4.298L9.473,0.633C9.887,2.655,10.033,4.427,9.913,5.948Z" /></g><g id="Group 13" transform="matrix(1,0,0,1,115.602,315.642)"><path fill="#ffffff" fill-opacity="1" d="M39.474,3.051L-35.102,18.311L-39.474,-3.052L35.103,-18.311L39.474,3.051Z" /></g><g id="Group 10" transform="matrix(1,0,0,1,248.002,320.925)"><path fill="#ffffff" fill-opacity="1" d="M165.515,-22.739L-161.144,44.102L-165.515,22.739L161.144,-44.102L165.515,-22.739Z" /></g><g id="Group 9" transform="matrix(1,0,0,1,454.381,278.696)"><path fill="#ffffff" fill-opacity="1" d="M10.681,-2.185C11.888,3.714,8.084,9.475,2.185,10.682C-3.714,11.889,-9.475,8.085,-10.682,2.185C-11.889,-3.714,-8.084,-9.474,-2.185,-10.681C3.714,-11.888,9.474,-8.084,10.681,-2.185Z" /></g><g id="Group 8" transform="matrix(1,0,0,1,484.289,272.576)"><path fill="#ffffff" fill-opacity="1" d="M10.681,-2.185C11.888,3.714,8.084,9.475,2.185,10.682C-3.714,11.889,-9.475,8.085,-10.682,2.185C-11.889,-3.714,-8.084,-9.474,-2.185,-10.681C3.714,-11.888,9.474,-8.084,10.681,-2.185Z" /></g><g id="Group 7" transform="matrix(1,0,0,1,67.807,131.51)"><path fill="#fecc86" fill-opacity="1" d="M31.414,-25.78L39.018,11.38C39.404,13.268,38.19,15.119,36.294,15.507L-27.278,28.514C-29.174,28.902,-31.027,27.679,-31.413,25.791L-39.017,-11.369C-39.405,-13.265,-38.18,-15.118,-36.284,-15.506L27.285,-28.514C29.182,-28.902,31.026,-27.676,31.414,-25.78Z" /></g><g id="Group 1" transform="matrix(1,0,0,1,263.893,194.988)"><path fill="#1d1d1b" fill-opacity="1" d="M-250.021,-100.35C-256.52,-99.02,-260.725,-92.651,-259.396,-86.152L-204.706,181.116C-203.377,187.615,-197.009,191.82,-190.51,190.49L250.02,100.349C256.519,99.019,260.724,92.65,259.394,86.151L204.706,-181.116C203.377,-187.615,197.008,-191.821,190.508,-190.491L-250.021,-100.35ZM250.556,102.971L-189.973,193.112C-197.918,194.738,-205.703,189.597,-207.328,181.652L-262.016,-85.616C-263.642,-93.56,-258.502,-101.346,-250.557,-102.972L189.972,-193.113C197.917,-194.738,205.704,-189.597,207.329,-181.653L262.017,85.615C263.643,93.56,258.501,101.345,250.556,102.971Z" /></g></g></g></g></g><g id="Hand Right Outlines"><g transform="translate(1909.074,1553.105)"><animateTransform repeatCount="indefinite" type="translate" attributeName="transform" dur="0.534s" begin="1.068s" calcMode="spline" values="1909.074 1553.105; 1909.074 1489.105" keyTimes="0; 1" keySplines="0.333 0 0.667 1" fill="freeze" /><g transform="scale(0.8,0.8)"><animateTransform repeatCount="indefinite" type="scale" attributeName="transform" dur="0.534s" begin="1.068s" calcMode="spline" values="0.8 0.8; 1 1" keyTimes="0; 1" keySplines="0.333 0 0.667 1" fill="freeze" /><g transform="translate(-463.355,-818.267)"><g id="Group 26" transform="matrix(1,0,0,1,380.594,784.965)"><path fill="#ed7163" fill-opacity="1" d="M19.699,141.827C19.699,141.827,-142.025,96.983,-187.945,0.13C-233.866,-96.723,-61.485,-141.826,-63.911,-141.368C-66.337,-140.91,122.344,-126.281,139.97,-99.459C157.595,-72.637,233.865,38.586,212.032,42.708C190.198,46.829,19.699,141.827,19.699,141.827Z" /></g><g id="Group 25" transform="matrix(1,0,0,1,290.245,382.724)"><path fill="#d0f6fc" fill-opacity="1" d="M-189.242,-346.44C-189.239,-346.667,-189.233,-346.894,-189.22,-347.119C-188.892,-354.75,-182.895,-360.937,-175.279,-361.513C-175.054,-361.533,-174.829,-361.549,-174.601,-361.56C-174.526,-361.562,-174.453,-361.573,-174.377,-361.574L162.373,-367.054C162.449,-367.056,162.522,-367.046,162.597,-367.046C162.825,-367.043,163.053,-367.035,163.278,-367.023C170.909,-366.695,177.103,-360.707,177.679,-353.09C177.699,-352.866,177.714,-352.639,177.724,-352.411C177.727,-352.336,177.737,-352.263,177.739,-352.187L189.133,347.997C189.252,355.28,183.442,361.275,176.165,361.393L-164.46,366.937C-171.737,367.056,-177.737,361.252,-177.856,353.969L-189.251,-346.216C-189.252,-346.292,-189.242,-346.364,-189.242,-346.44Z" /></g><g id="Group 24" transform="matrix(1,0,0,1,283.312,38.722)"><path fill="#0d93b2" fill-opacity="1" d="M190.413,-12.612L162.564,-31.023L-165.539,-24.837L-193.907,0.945C-193.907,0.945,-190.651,30.19,-188.84,30.606C-187.028,31.023,193.907,29.252,193.797,23.393C193.686,17.534,190.413,-12.612,190.413,-12.612Z" /></g><g id="Group 20" transform="matrix(1,0,0,1,290.241,386.974)"><path fill="#20111d" fill-opacity="1" d="M-204.611,-342.916L-193.345,349.391C-193.007,370.164,-175.9,386.724,-155.127,386.386L167.616,381.134C188.382,380.796,204.949,363.688,204.61,342.915L193.345,-349.392C193.007,-370.164,175.892,-386.724,155.126,-386.386L-167.617,-381.134C-188.39,-380.796,-204.949,-363.689,-204.611,-342.916ZM-189.121,-342.783C-189.326,-355.377,-179.284,-365.744,-166.698,-365.949L154.702,-371.179C167.289,-371.384,177.663,-361.349,177.868,-348.755L189.019,336.499C189.202,347.785,180.2,357.078,168.914,357.262L-157.208,362.569C-168.487,362.752,-177.787,353.757,-177.971,342.471L-189.121,-342.783Z" /></g><g id="Group 19" transform="matrix(1,0,0,1,496.64,735.251)"><path fill="#fe9f73" fill-opacity="1" d="M133.82,306.249C56.81,371.511,-34.776,416.06,-133.82,445.034L-133.659,312.101L-133.607,266.383L-129.887,180.238L-129.887,180.229L-129.94,179.971L-130.101,179.07L-129.173,178.597L-127.138,177.571L-40.94,134.226L-40.923,134.226L15.597,105.806L17.89,104.655C17.89,104.655,-21.038,99.74,-46.39,59.473C-51.19,51.846,-55.392,43.211,-58.809,33.184C-61.253,26.003,-63.296,18.109,-64.794,9.438C-66.123,1.917,-67.032,-6.173,-67.478,-14.897C-68.156,-28.305,-68.113,-41.016,-67.506,-53.005C-67.069,-61.542,-66.345,-69.704,-65.4,-77.501C-64.267,-86.894,-62.804,-95.725,-61.118,-103.995C-56.471,-126.849,-50.147,-145.377,-44.393,-159.141C-36.552,-177.919,-29.78,-187.838,-29.78,-187.838C-29.78,-187.838,-37.97,-217.142,-46.284,-253.769C-57.371,-304.01,-65.793,-351.761,-63.073,-377.523C-60.191,-405.007,-42.707,-431.627,-24.367,-441.065C-19.193,-443.741,-13.939,-445.033,-8.934,-444.596C-2.173,-443.999,4.152,-440.243,9.264,-432.393C14.858,-420.85,15.589,-418.691,16.267,-416.372C17.525,-406.006,20.085,-391.252,20.46,-389.102C22.885,-375.739,25.632,-362.349,29.129,-349.236C29.416,-348.13,29.71,-347.078,29.996,-346.043C33.858,-332.047,38.577,-318.603,44.152,-308.586C63.153,-274.474,107.692,-184.904,117.915,-144.11C128.129,-103.335,121.822,76.234,121.822,76.234L133.82,306.249Z" /></g><g id="Group 1" transform="matrix(1,0,0,1,525.457,564.677)"><path fill="#000000" fill-opacity="1" d="M-11.114,276.737C-11.945,276.632,-31.716,273.981,-52.453,257.705C-74.542,240.724,-97.653,99.341,-94.777,155.596C-91.919,211.583,-69.162,240.724,-50.575,255.312C-30.494,271.073,-10.928,273.694,-10.733,273.719L-11.114,276.737Z" /></g></g></g></g></g><g id="Bubble Outlines"><g transform="translate(1829.681,1205.37)"><g transform="scale(0,0)"><animateTransform repeatCount="indefinite" type="scale" attributeName="transform" dur="0.1s" begin="2.102s" calcMode="spline" values="0 0; 1 1" keyTimes="0; 1" keySplines="0.333 0 0.667 1" fill="freeze" /><g transform="translate(-227.004,-285.951)"><g id="Group 2" transform="matrix(1,0,0,1,131.004,131.005)"><path fill="#ffffff" fill-opacity="1" d="M130.755,0C130.755,72.214,72.215,130.755,0,130.755C-72.213,130.755,-130.755,72.214,-130.755,0C-130.755,-72.214,-72.213,-130.755,0,-130.755C72.215,-130.755,130.755,-72.214,130.755,0Z" /></g><g id="Group 1" transform="matrix(1,0,0,1,202.556,249.343)"><path fill="#ffffff" fill-opacity="1" d="M-26.959,-10.966L26.959,42.31L3.343,-42.31L-26.959,-10.966Z" /></g></g></g></g></g><g transform="matrix(1,0,0,1,1639.618,955.374)" id="Tick Outlines"><g id="Group 1" transform="matrix(1,0,0,1,99.807,87.469)"><path stroke-linejoin="miter" stroke-linecap="butt" stroke-width="14" stroke-opacity="1" stroke="#6ac9d3" d="M-64.807,-6.362L-17.975,52.469L64.807,-52.469" /></g></g><g id="Line 1 Outlines"><g transform="translate(1624.386,1289.235)"><g transform="scale(0,0)"><animateTransform repeatCount="indefinite" type="scale" attributeName="transform" dur="0.167s" begin="2.402s" calcMode="spline" values="0 0; 1 1" keyTimes="0; 1" keySplines="0.333 0 0.667 1" fill="freeze" /><g transform="translate(1.947,-7.806)"><g id="Group 1" transform="matrix(1,0,0,1,112.053,5.806)"><path fill="#ffffff" fill-opacity="1" d="M111.803,5.556L-111.803,5.556L-111.803,-5.556L111.803,-5.556L111.803,5.556Z" /></g></g></g></g></g><g id="Line 2 Outlines"><g transform="translate(1622.386,1337.225)"><g transform="scale(0,0)"><animateTransform repeatCount="indefinite" type="scale" attributeName="transform" dur="0.2s" begin="2.536s" calcMode="spline" values="0 0; 1 1" keyTimes="0; 1" keySplines="0.333 0 0.667 1" fill="freeze" /><g transform="translate(3.947,-9.806)"><g id="Group 1" transform="matrix(1,0,0,1,112.053,5.806)"><path fill="#ffffff" fill-opacity="1" d="M111.803,5.556L-111.803,5.556L-111.803,-5.556L111.803,-5.556L111.803,5.556Z" /></g></g></g></g></g></svg>
